<svg width="0" height="0" class="hidden">
    <symbol xmlns="http://www.w3.org/2000/svg" width="25" height="7" viewBox="0 0 25 7" id="svg-logo">
        <circle cx="3.22848" cy="3.22848" r="3.22848" />
        <circle cx="12.5" cy="3.22848" r="3.22848" />
        <circle cx="21.7714" cy="3.22848" r="3.22848" />
    </symbol>
    <symbol viewBox="0 0 18 13" fill="none" xmlns="http://www.w3.org/2000/svg" id="svg-catalog">
        <path d="M1 0.599609H17" stroke="white" stroke-linecap="round" stroke-linejoin="round" />
        <path d="M1 6.46582H17" stroke="white" stroke-linecap="round" stroke-linejoin="round" />
        <path d="M1 12.333H17" stroke="white" stroke-linecap="round" stroke-linejoin="round" />
    </symbol>
    <symbol viewBox="0 0 24 20" fill="none" xmlns="http://www.w3.org/2000/svg" id="svg-fav">
        <path
            d="M11.9967 20C11.9101 20.0001 11.8244 19.9832 11.7443 19.9505C11.6643 19.9177 11.5916 19.8697 11.5303 19.8091C9.7671 18.0632 7.97583 16.6682 6.39549 15.4363C2.82285 12.6527 0 10.4532 0 6.299C0 3.34571 1.97748 0.823176 4.79539 0.162356C6.21293 -0.169535 7.70413 0.023734 8.98764 0.705697C10.1593 1.3143 11.1678 2.27372 11.9951 3.56435C12.819 2.27372 13.8308 1.3143 15.0025 0.705697C16.2883 0.0202034 17.7836 -0.17429 19.2046 0.159093C22.0291 0.811754 24 3.34245 24 6.29574C24 10.4532 21.1771 12.6592 17.6045 15.433C16.0242 16.6649 14.2329 18.06 12.4696 19.8058C12.4079 19.8678 12.3342 19.9169 12.253 19.9502C12.1718 19.9836 12.0846 20.0005 11.9967 20ZM6.18621 1.30288C5.81934 1.30289 5.45374 1.3456 5.09695 1.43015C2.87229 1.95065 1.31832 3.95921 1.31832 6.29574C1.31832 9.82011 3.79017 11.7455 7.21121 14.4099C8.87298 15.6683 10.4681 17.0108 11.9901 18.432C13.5122 17.0108 15.1072 15.6683 16.769 14.4099C20.1901 11.7455 22.6619 9.82011 22.6619 6.29574C22.6619 3.95105 21.1079 1.95065 18.8833 1.43015C16.4114 0.852545 14.0516 2.25577 12.5735 5.18295C12.5188 5.29156 12.4346 5.38292 12.3304 5.44679C12.2262 5.51065 12.1061 5.54448 11.9835 5.54448C11.861 5.54448 11.7408 5.51065 11.6366 5.44679C11.5324 5.38292 11.4482 5.29156 11.3936 5.18295C10.1412 2.68979 8.24938 1.30288 6.18621 1.30288Z"
            fill="#201600" />
    </symbol>
    <symbol viewBox="0 0 24 24" fill="none" xmlns="http://www.w3.org/2000/svg" id="svg-settings">
        <path
            d="M22.5445 9.38231H20.3454C20.1801 9.38004 20.019 9.32913 19.8824 9.23594C19.7458 9.14274 19.6396 9.01138 19.5771 8.85825C19.5147 8.70511 19.4987 8.53697 19.5312 8.37481C19.5636 8.21264 19.6431 8.06362 19.7597 7.94635L21.3167 6.38937C21.5431 6.16172 21.6702 5.8537 21.6702 5.53263C21.6702 5.21156 21.5431 4.90354 21.3167 4.67589L19.3322 2.69135C19.1018 2.47075 18.7952 2.34761 18.4762 2.34761C18.1573 2.34761 17.8507 2.47075 17.6203 2.69135L16.0504 4.24349C15.9322 4.36061 15.7819 4.44014 15.6185 4.47206C15.4551 4.50398 15.286 4.48688 15.1323 4.42289C14.9787 4.35891 14.8473 4.2509 14.7549 4.11247C14.6625 3.97404 14.6131 3.81136 14.6129 3.6449V1.45223C14.6133 1.13183 14.487 0.824264 14.2615 0.596652C14.036 0.36904 13.7296 0.239861 13.4092 0.237305H10.5873C10.4278 0.237305 10.2699 0.268741 10.1226 0.329817C9.97531 0.390892 9.84149 0.480408 9.7288 0.593245C9.61611 0.706083 9.52677 0.840027 9.46589 0.987419C9.40501 1.13481 9.37379 1.29276 9.374 1.45223V3.65135C9.37003 3.81403 9.31901 3.97208 9.22712 4.10638C9.13523 4.24067 9.0064 4.34548 8.85621 4.40811C8.70603 4.47075 8.54091 4.48854 8.38082 4.45932C8.22074 4.4301 8.07255 4.35514 7.95417 4.24349L6.38913 2.68006C6.15889 2.45861 5.85184 2.33492 5.53239 2.33492C5.21293 2.33492 4.90589 2.45861 4.67565 2.68006L2.69111 4.6646C2.4648 4.89197 2.33774 5.19972 2.33774 5.52053C2.33774 5.84134 2.4648 6.14909 2.69111 6.37646L4.24324 7.95441C4.3606 8.07248 4.44034 8.22267 4.47239 8.38602C4.50443 8.54938 4.48735 8.71856 4.4233 8.87222C4.35925 9.02587 4.2511 9.15709 4.11252 9.24932C3.97393 9.34154 3.81112 9.39063 3.64466 9.39038H1.45198C1.13157 9.39079 0.824246 9.5176 0.596771 9.74326C0.369296 9.96892 0.240035 10.2752 0.237061 10.5956V13.4095C0.23706 13.5689 0.268497 13.7268 0.329572 13.8742C0.390648 14.0215 0.480164 14.1553 0.593001 14.268C0.705838 14.3807 0.839783 14.47 0.987175 14.5309C1.13457 14.5918 1.29251 14.623 1.45198 14.6228H3.65111C3.81855 14.6202 3.98283 14.6685 4.12226 14.7613C4.26168 14.854 4.36969 14.9869 4.43202 15.1423C4.49786 15.2947 4.51506 15.4638 4.48128 15.6263C4.44749 15.7889 4.36437 15.9371 4.24324 16.0507L2.68627 17.6077C2.45986 17.8353 2.33276 18.1433 2.33276 18.4644C2.33276 18.7855 2.45986 19.0935 2.68627 19.3211L4.67081 21.3057C4.90116 21.5263 5.20779 21.6494 5.52674 21.6494C5.84569 21.6494 6.15232 21.5263 6.38267 21.3057L7.95417 19.76C8.07213 19.6427 8.22218 19.563 8.38538 19.5309C8.54859 19.4988 8.71764 19.5158 8.87123 19.5796C9.02481 19.6435 9.15605 19.7514 9.2484 19.8897C9.34075 20.0281 9.39007 20.1906 9.39013 20.357V22.5561C9.39095 22.8745 9.51694 23.1799 9.74091 23.4063C9.96488 23.6327 10.2689 23.7619 10.5873 23.7662H13.4092C13.5686 23.7664 13.7265 23.7351 13.8738 23.6742C14.0211 23.6133 14.1549 23.524 14.2676 23.4113C14.3803 23.2986 14.4697 23.1647 14.5306 23.0174C14.5915 22.8701 14.6227 22.7123 14.6225 22.5529V20.3457C14.6197 20.1782 14.6679 20.0138 14.7607 19.8743C14.8535 19.7349 14.9865 19.6269 15.1421 19.5648C15.2954 19.4958 15.4665 19.4764 15.6314 19.5094C15.7963 19.5423 15.9467 19.626 16.0617 19.7487L17.6203 21.3057C17.8507 21.5263 18.1573 21.6494 18.4762 21.6494C18.7952 21.6494 19.1018 21.5263 19.3322 21.3057L21.3167 19.3211C21.5431 19.0935 21.6702 18.7855 21.6702 18.4644C21.6702 18.1433 21.5431 17.8353 21.3167 17.6077L19.7597 16.0507C19.6427 15.9325 19.5632 15.7824 19.5312 15.6192C19.4993 15.4559 19.5162 15.2869 19.58 15.1333C19.6438 14.9797 19.7516 14.8484 19.8898 14.7558C20.0279 14.6633 20.1904 14.6136 20.3567 14.6131H22.5558C22.8755 14.6127 23.1821 14.4859 23.4088 14.2605C23.6354 14.035 23.7638 13.7292 23.7659 13.4095V10.5876C23.7651 10.4282 23.7328 10.2705 23.6709 10.1236C23.609 9.9767 23.5188 9.84345 23.4053 9.73149C23.2919 9.61953 23.1574 9.53106 23.0097 9.47114C22.862 9.41122 22.7039 9.38104 22.5445 9.38231ZM22.8866 13.3982C22.8866 13.4879 22.8512 13.574 22.788 13.6378C22.7249 13.7015 22.6391 13.7378 22.5494 13.7386H20.3454C20.0064 13.7392 19.6751 13.8401 19.3934 14.0287C19.1116 14.2172 18.892 14.485 18.7622 14.7982C18.6325 15.1114 18.5983 15.456 18.6642 15.7886C18.73 16.1212 18.8928 16.4269 19.1321 16.667L20.7004 18.2208C20.7324 18.2524 20.7578 18.2901 20.7751 18.3317C20.7925 18.3732 20.8014 18.4178 20.8014 18.4628C20.8014 18.5078 20.7925 18.5524 20.7751 18.5939C20.7578 18.6354 20.7324 18.6731 20.7004 18.7048L18.7158 20.6861C18.6841 20.7179 18.6464 20.7431 18.6048 20.7604C18.5633 20.7776 18.5188 20.7864 18.4738 20.7864C18.4289 20.7864 18.3844 20.7776 18.3428 20.7604C18.3013 20.7431 18.2636 20.7179 18.2318 20.6861L16.6748 19.1275C16.4347 18.8876 16.1287 18.7242 15.7957 18.6581C15.4627 18.592 15.1176 18.6262 14.804 18.7562C14.4904 18.8862 14.2224 19.1064 14.0338 19.3887C13.8453 19.671 13.7447 20.0029 13.7448 20.3424V22.5416C13.7448 22.6313 13.7094 22.7174 13.6463 22.7812C13.5831 22.8449 13.4973 22.8812 13.4076 22.882H10.5873C10.5428 22.8824 10.4987 22.8741 10.4574 22.8575C10.4161 22.8408 10.3785 22.8162 10.3468 22.7851C10.315 22.7539 10.2897 22.7168 10.2723 22.6758C10.2549 22.6349 10.2457 22.5909 10.2453 22.5464V20.3408C10.2481 20.0018 10.1484 19.6699 9.95921 19.3886C9.77004 19.1073 9.50024 18.8897 9.18523 18.7645C8.87209 18.63 8.52577 18.5927 8.19118 18.6575C7.8566 18.7222 7.54918 18.886 7.30879 19.1275L5.75182 20.6845C5.72016 20.7165 5.68247 20.7419 5.64092 20.7592C5.59938 20.7766 5.55481 20.7855 5.5098 20.7855C5.46478 20.7855 5.42022 20.7766 5.37867 20.7592C5.33713 20.7419 5.29944 20.7165 5.26778 20.6845L3.30906 18.7016C3.27725 18.6698 3.25202 18.6321 3.2348 18.5906C3.21759 18.549 3.20872 18.5045 3.20872 18.4596C3.20872 18.4146 3.21759 18.3701 3.2348 18.3286C3.25202 18.287 3.27725 18.2493 3.30906 18.2175L4.86603 16.667C5.10659 16.4276 5.27055 16.1221 5.33708 15.7892C5.4036 15.4564 5.36969 15.1113 5.23966 14.7978C5.10962 14.4843 4.88933 14.2165 4.60676 14.0285C4.3242 13.8405 3.99213 13.7407 3.65272 13.7418H1.4536C1.4091 13.7421 1.365 13.7335 1.32381 13.7167C1.28262 13.6998 1.24515 13.6751 1.21354 13.6437C1.18193 13.6124 1.15679 13.5752 1.13957 13.5342C1.12235 13.4931 1.11337 13.4491 1.11316 13.4046V10.5876C1.11274 10.5431 1.12108 10.4989 1.13771 10.4576C1.15435 10.4164 1.17895 10.3788 1.21011 10.347C1.24128 10.3153 1.27839 10.2899 1.31934 10.2725C1.36029 10.2551 1.40426 10.2459 1.44876 10.2455H3.65272C3.99377 10.2473 4.32762 10.1475 4.61162 9.95864C4.89562 9.7698 5.11687 9.50059 5.24711 9.18539C5.37734 8.87018 5.41065 8.52331 5.34277 8.18908C5.27489 7.85486 5.10891 7.54846 4.86603 7.30903L3.30906 5.75206C3.27725 5.72029 3.25202 5.68257 3.2348 5.64104C3.21759 5.59951 3.20872 5.555 3.20872 5.51004C3.20872 5.46509 3.21759 5.42058 3.2348 5.37905C3.25202 5.33752 3.27725 5.29979 3.30906 5.26803L5.29521 3.2964C5.32687 3.2644 5.36456 3.23899 5.4061 3.22165C5.44764 3.20431 5.49221 3.19539 5.53723 3.19539C5.58224 3.19539 5.62681 3.20431 5.66835 3.22165C5.70989 3.23899 5.74759 3.2644 5.77924 3.2964L7.33622 4.85337C7.5764 5.09332 7.88233 5.25666 8.21533 5.32276C8.54834 5.38885 8.89346 5.35472 9.20707 5.22468C9.52068 5.09464 9.78869 4.87454 9.97722 4.59219C10.1657 4.30985 10.2663 3.97795 10.2662 3.63845V1.44255C10.2658 1.35281 10.3008 1.26653 10.3637 1.20248C10.4265 1.13842 10.5121 1.10177 10.6018 1.1005H13.4092C13.4537 1.10029 13.4978 1.10884 13.539 1.12567C13.5802 1.1425 13.6177 1.16728 13.6493 1.1986C13.6809 1.22991 13.706 1.26714 13.7233 1.30817C13.7405 1.3492 13.7495 1.39321 13.7497 1.43771V3.64167C13.7496 3.98137 13.8503 4.31345 14.039 4.5959C14.2277 4.87834 14.496 5.09844 14.8099 5.22834C15.1238 5.35825 15.4691 5.39211 15.8022 5.32565C16.1354 5.25919 16.4413 5.09539 16.6813 4.85498L18.2383 3.2964C18.2699 3.2644 18.3076 3.23899 18.3492 3.22165C18.3907 3.20431 18.4353 3.19539 18.4803 3.19539C18.5253 3.19539 18.5699 3.20431 18.6114 3.22165C18.653 3.23899 18.6906 3.2644 18.7223 3.2964L20.7004 5.28093C20.7324 5.31259 20.7578 5.35028 20.7751 5.39183C20.7925 5.43337 20.8014 5.47794 20.8014 5.52295C20.8014 5.56797 20.7925 5.61253 20.7751 5.65408C20.7578 5.69562 20.7324 5.73331 20.7004 5.76497L19.1434 7.32194C18.9036 7.56202 18.7402 7.86781 18.6741 8.20066C18.608 8.53352 18.642 8.87851 18.7718 9.19205C18.9016 9.50559 19.1215 9.77362 19.4036 9.96227C19.6857 10.1509 20.0174 10.2517 20.3567 10.252H22.5591C22.6036 10.2517 22.6477 10.2603 22.6889 10.2771C22.73 10.294 22.7675 10.3187 22.7991 10.3501C22.8307 10.3814 22.8559 10.4186 22.8731 10.4596C22.8903 10.5007 22.8993 10.5447 22.8995 10.5892V13.3982H22.8866Z"
            fill="#030608" />
        <path
            d="M11.9974 8.07715C11.2225 8.07779 10.4651 8.30814 9.82111 8.73908C9.17709 9.17003 8.67527 9.78223 8.37909 10.4983C8.08292 11.2144 8.00567 12.0022 8.15712 12.7622C8.30858 13.5221 8.68192 14.2201 9.22998 14.768C9.77804 15.3158 10.4762 15.6889 11.2362 15.84C11.9963 15.9911 12.784 15.9136 13.5 15.6171C14.2159 15.3206 14.8279 14.8186 15.2586 14.1744C15.6893 13.5301 15.9193 12.7727 15.9197 11.9978C15.9199 11.4828 15.8186 10.9727 15.6215 10.4968C15.4244 10.0209 15.1355 9.58857 14.7712 9.22444C14.4069 8.86031 13.9745 8.57156 13.4985 8.3747C13.0225 8.17784 12.5124 8.07673 11.9974 8.07715ZM11.9974 15.0569C11.3911 15.0569 10.7984 14.8771 10.2943 14.5403C9.79012 14.2034 9.3972 13.7247 9.16518 13.1645C8.93316 12.6043 8.87245 11.988 8.99073 11.3933C9.10902 10.7986 9.40098 10.2524 9.82971 9.8237C10.2584 9.39497 10.8047 9.10301 11.3993 8.98472C11.994 8.86644 12.6104 8.92715 13.1705 9.15917C13.7307 9.39119 14.2094 9.78411 14.5463 10.2882C14.8831 10.7924 15.0629 11.3851 15.0629 11.9914C15.0621 12.8038 14.7387 13.5827 14.1639 14.1569C13.5891 14.7311 12.8099 15.0537 11.9974 15.0537V15.0569Z"
            fill="#030608" />
        <path
            d="M13.4093 24H10.5874C10.2051 23.9971 9.83919 23.8447 9.56782 23.5754C9.29645 23.3062 9.14121 22.9414 9.13532 22.5592V20.3568C9.13575 20.278 9.12057 20.1999 9.09066 20.127C9.06075 20.0541 9.0167 19.9878 8.96105 19.932C8.9054 19.8763 8.83926 19.832 8.76643 19.8019C8.69361 19.7718 8.61554 19.7564 8.53674 19.7566C8.45853 19.7565 8.38106 19.7718 8.3088 19.8017C8.23653 19.8316 8.17088 19.8755 8.11563 19.9309L6.54575 21.4782C6.27034 21.7435 5.90281 21.8917 5.5204 21.8917C5.13799 21.8917 4.77047 21.7435 4.49506 21.4782L2.50891 19.492C2.23795 19.2186 2.08594 18.8492 2.08594 18.4643C2.08594 18.0793 2.23795 17.7099 2.50891 17.4365L4.06749 15.8795C4.1552 15.8 4.2161 15.6952 4.24181 15.5796C4.26753 15.4641 4.2568 15.3434 4.21109 15.2341C4.16853 15.1225 4.09251 15.0268 3.99344 14.9601C3.89437 14.8934 3.7771 14.8589 3.65768 14.8614H1.4521C1.06698 14.8614 0.697632 14.7085 0.42531 14.4361C0.152989 14.1638 0 13.7945 0 13.4093V10.5874C0.00253696 10.2031 0.15634 9.83521 0.428114 9.56344C0.699887 9.29166 1.06776 9.13786 1.4521 9.13532H3.63993C3.75777 9.13468 3.87281 9.09935 3.97071 9.03376C4.06861 8.96817 4.14503 8.87521 4.19045 8.76648C4.23587 8.65774 4.24828 8.53804 4.22613 8.4223C4.20398 8.30656 4.14824 8.1999 4.06588 8.11563L2.51859 6.54575C2.3837 6.4109 2.27669 6.2508 2.20369 6.07459C2.13068 5.89838 2.09311 5.70952 2.09311 5.51879C2.09311 5.32806 2.13068 5.13919 2.20369 4.96298C2.27669 4.78678 2.3837 4.62668 2.51859 4.49183L4.50312 2.50729C4.77834 2.24161 5.14594 2.09313 5.52847 2.09313C5.911 2.09313 6.2786 2.24161 6.55381 2.50729L8.11563 4.06588C8.19982 4.14638 8.30561 4.20064 8.42011 4.22205C8.53461 4.24346 8.65286 4.23108 8.76045 4.18644C8.86804 4.1418 8.96031 4.06681 9.02602 3.97063C9.09172 3.87445 9.12802 3.76123 9.13048 3.64477V1.4521C9.13048 1.06698 9.28347 0.697632 9.55579 0.42531C9.82812 0.152989 10.1975 0 10.5826 0H13.4093C13.7945 0 14.1638 0.152989 14.4361 0.42531C14.7085 0.697632 14.8614 1.06698 14.8614 1.4521V3.63832C14.8612 3.71742 14.8766 3.79578 14.9067 3.86889C14.9369 3.94201 14.9813 4.00841 15.0373 4.06427C15.0917 4.12018 15.1567 4.16478 15.2284 4.19552C15.3001 4.22625 15.3772 4.24251 15.4552 4.24336C15.5339 4.24391 15.612 4.22878 15.6849 4.19887C15.7577 4.16895 15.8239 4.12484 15.8795 4.06911L17.4494 2.52181C17.7248 2.25651 18.0923 2.10828 18.4748 2.10828C18.8572 2.10828 19.2247 2.25651 19.5001 2.52181L21.4879 4.50958C21.6227 4.64442 21.7298 4.80452 21.8028 4.98073C21.8758 5.15694 21.9133 5.3458 21.9133 5.53654C21.9133 5.72727 21.8758 5.91613 21.8028 6.09234C21.7298 6.26855 21.6227 6.42865 21.4879 6.56349L19.9309 8.11563C19.8479 8.19926 19.7914 8.30546 19.7683 8.42101C19.7453 8.53655 19.7567 8.65632 19.8013 8.76539C19.8458 8.87446 19.9215 8.968 20.0189 9.03436C20.1162 9.10071 20.231 9.13695 20.3488 9.13855H22.5479C22.933 9.13855 23.3024 9.29154 23.5747 9.56386C23.847 9.83618 24 10.2055 24 10.5907V13.4142C23.9971 13.7965 23.8447 14.1624 23.5754 14.4338C23.3062 14.7052 22.9414 14.8604 22.5592 14.8663H20.3568C20.2383 14.8663 20.1225 14.9014 20.0239 14.9672C19.9253 15.0329 19.8484 15.1264 19.8029 15.2358C19.7573 15.3451 19.7452 15.4656 19.768 15.5819C19.7907 15.6981 19.8474 15.8051 19.9309 15.8892L21.4879 17.4462C21.6227 17.581 21.7298 17.7411 21.8028 17.9173C21.8758 18.0935 21.9133 18.2824 21.9133 18.4731C21.9133 18.6639 21.8758 18.8527 21.8028 19.0289C21.7298 19.2051 21.6227 19.3652 21.4879 19.5001L19.5017 21.4862C19.2263 21.7516 18.8588 21.8998 18.4764 21.8998C18.094 21.8998 17.7264 21.7516 17.451 21.4862L15.8892 19.926C15.8088 19.8396 15.7035 19.7802 15.5879 19.7562C15.4722 19.7323 15.352 19.7448 15.2438 19.7921C15.1319 19.8352 15.0357 19.9114 14.9682 20.0106C14.9008 20.1098 14.8652 20.2272 14.8663 20.3472V22.5511C14.8659 22.7419 14.8278 22.9308 14.7544 23.1069C14.6809 23.2831 14.5734 23.443 14.4381 23.5775C14.3028 23.7121 14.1423 23.8187 13.9658 23.8912C13.7893 23.9636 13.6002 24.0006 13.4093 24ZM8.53996 19.2726C8.68241 19.2726 8.82345 19.3007 8.95501 19.3553C9.08657 19.4099 9.20606 19.49 9.30664 19.5908C9.40721 19.6917 9.48689 19.8114 9.5411 19.9432C9.59532 20.0749 9.62301 20.216 9.62258 20.3584V22.556C9.62719 22.8105 9.73092 23.0532 9.9117 23.2325C10.0925 23.4118 10.3361 23.5135 10.5907 23.516H13.4093C13.6661 23.516 13.9123 23.414 14.0939 23.2324C14.2754 23.0509 14.3774 22.8046 14.3774 22.5479V20.3455C14.375 20.1297 14.438 19.9181 14.5581 19.7387C14.6782 19.5593 14.8497 19.4205 15.0502 19.3404C15.2486 19.253 15.4692 19.2293 15.6817 19.2727C15.8941 19.316 16.0878 19.4242 16.2361 19.5824L17.7882 21.1345C17.973 21.3115 18.2189 21.4103 18.4748 21.4103C18.7306 21.4103 18.9765 21.3115 19.1613 21.1345L21.1426 19.1516C21.2326 19.0617 21.304 18.9549 21.3527 18.8374C21.4014 18.7199 21.4265 18.5939 21.4265 18.4667C21.4265 18.3395 21.4014 18.2135 21.3527 18.096C21.304 17.9785 21.2326 17.8717 21.1426 17.7818L19.5856 16.2248C19.4339 16.0734 19.3305 15.8803 19.2886 15.6701C19.2466 15.4599 19.2681 15.2419 19.3502 15.0439C19.4322 14.8458 19.5713 14.6766 19.7496 14.5577C19.928 14.4388 20.1376 14.3755 20.352 14.3758H22.5543C22.8088 14.3712 23.0513 14.2674 23.2303 14.0866C23.4093 13.9057 23.5107 13.6622 23.5127 13.4077V10.5874C23.5127 10.3307 23.4107 10.0844 23.2292 9.9029C23.0476 9.72135 22.8014 9.61936 22.5447 9.61936H20.3455C20.132 9.61779 19.9237 9.55311 19.7468 9.43344C19.5699 9.31377 19.4324 9.14446 19.3515 8.94682C19.2706 8.74918 19.25 8.53203 19.2922 8.32269C19.3345 8.11335 19.4377 7.92118 19.5888 7.77035L21.1458 6.21338C21.2361 6.12344 21.3077 6.01657 21.3565 5.8989C21.4054 5.78123 21.4305 5.65507 21.4305 5.52766C21.4305 5.40025 21.4054 5.27409 21.3565 5.15642C21.3077 5.03875 21.2361 4.93188 21.1458 4.84195L19.1613 2.85741C18.9763 2.6803 18.7301 2.58143 18.4739 2.58143C18.2178 2.58143 17.9716 2.6803 17.7866 2.85741L16.22 4.4047C16.1203 4.50659 16.0014 4.5876 15.87 4.643C15.7387 4.6984 15.5977 4.72709 15.4552 4.72739C15.1675 4.72697 14.8917 4.61238 14.6884 4.40879C14.4851 4.2052 14.371 3.92925 14.371 3.64155V1.4521C14.371 1.19535 14.269 0.949121 14.0874 0.767574C13.9059 0.586026 13.6596 0.484033 13.4029 0.484033H10.5874C10.3307 0.484033 10.0844 0.586026 9.9029 0.767574C9.72135 0.949121 9.61936 1.19535 9.61936 1.4521V3.65123C9.61521 3.86284 9.54921 4.06862 9.42951 4.24317C9.30981 4.41773 9.14163 4.55343 8.94572 4.63354C8.74981 4.71366 8.53474 4.73468 8.32702 4.69401C8.11931 4.65335 7.92804 4.55278 7.7768 4.4047L6.21822 2.84612C6.03341 2.66863 5.78712 2.56951 5.53089 2.56951C5.27466 2.56951 5.02836 2.66863 4.84356 2.84612L2.86225 4.83549C2.77224 4.9254 2.70084 5.03217 2.65212 5.14969C2.60341 5.26721 2.57833 5.39318 2.57833 5.5204C2.57833 5.64762 2.60341 5.77359 2.65212 5.89111C2.70084 6.00864 2.77224 6.1154 2.86225 6.20531L4.4047 7.77519C4.55586 7.9271 4.65862 8.1204 4.69999 8.33067C4.74135 8.54094 4.71948 8.75876 4.63713 8.9566C4.55478 9.15445 4.41564 9.32346 4.2373 9.44228C4.05895 9.5611 3.84939 9.62441 3.63509 9.6242H1.4521C1.19535 9.6242 0.949121 9.72619 0.767574 9.90774C0.586026 10.0893 0.484033 10.3355 0.484033 10.5923V13.4093C0.484033 13.6661 0.586026 13.9123 0.767574 14.0939C0.949121 14.2754 1.19535 14.3774 1.4521 14.3774H3.65123C3.86752 14.3751 4.07943 14.4384 4.25892 14.5591C4.43841 14.6799 4.57701 14.8522 4.6564 15.0534C4.73935 15.2515 4.75969 15.4702 4.7147 15.6802C4.6697 15.8902 4.56153 16.0813 4.4047 16.228L2.85418 17.7785C2.76393 17.8685 2.69233 17.9754 2.64347 18.093C2.59461 18.2107 2.56945 18.3369 2.56945 18.4643C2.56945 18.5917 2.59461 18.7178 2.64347 18.8355C2.69233 18.9532 2.76393 19.06 2.85418 19.15L4.83872 21.1345C5.02344 21.3115 5.2694 21.4103 5.52524 21.4103C5.78108 21.4103 6.02704 21.3115 6.21176 21.1345L7.77842 19.5904C7.87825 19.49 7.9969 19.4103 8.12757 19.3558C8.25823 19.3012 8.39837 19.273 8.53996 19.2726ZM10.5826 23.1207C10.4298 23.1198 10.2834 23.059 10.1751 22.9512C10.0667 22.8435 10.005 22.6975 10.0034 22.5447V20.3407C10.0032 20.0494 9.91669 19.7646 9.75484 19.5224C9.59299 19.2801 9.36302 19.0913 9.09393 18.9796C8.82485 18.8679 8.52872 18.8385 8.24291 18.8949C7.9571 18.9514 7.69441 19.0912 7.488 19.2968L5.92941 20.8618C5.81854 20.9682 5.67083 21.0276 5.51717 21.0276C5.36351 21.0276 5.21581 20.9682 5.10494 20.8618L3.13815 18.8725C3.02947 18.7628 2.9685 18.6146 2.9685 18.4602C2.9685 18.3058 3.02947 18.1577 3.13815 18.048L4.69512 16.491C4.83177 16.3545 4.94017 16.1924 5.01413 16.014C5.08809 15.8356 5.12616 15.6443 5.12616 15.4512C5.12616 15.258 5.08809 15.0668 5.01413 14.8883C4.94017 14.7099 4.83177 14.5478 4.69512 14.4113C4.41668 14.1348 4.04038 13.9794 3.648 13.9789H1.45049C1.29728 13.9785 1.15044 13.9175 1.04195 13.8093C0.93346 13.7011 0.872111 13.5545 0.87126 13.4013V10.5874C0.870401 10.4337 0.930553 10.2858 1.03853 10.1763C1.1465 10.0668 1.29349 10.0046 1.44726 10.0034H3.65284C3.94437 10.0032 4.2293 9.91658 4.47163 9.75453C4.71397 9.59247 4.90284 9.36223 5.01437 9.09288C5.12591 8.82353 5.15511 8.52717 5.09829 8.24123C5.04147 7.9553 4.90117 7.69262 4.69512 7.48638L3.13815 5.92941C3.02947 5.81973 2.9685 5.67158 2.9685 5.51717C2.9685 5.36277 3.02947 5.21462 3.13815 5.10494L5.1243 3.12363C5.23398 3.01495 5.38213 2.95398 5.53654 2.95398C5.69094 2.95398 5.83909 3.01495 5.94877 3.12363L7.50575 4.68222C7.6424 4.81932 7.80487 4.92799 7.98377 5.00193C8.16267 5.07587 8.35445 5.11362 8.54803 5.11301C8.93901 5.11258 9.31386 4.95707 9.59032 4.68061C9.86679 4.40414 10.0223 4.0293 10.0227 3.63832V1.44242C10.0214 1.28822 10.0813 1.1398 10.1893 1.0297C10.2973 0.919611 10.4445 0.856829 10.5987 0.855126H13.4142C13.5671 0.855973 13.7135 0.9171 13.8217 1.02524C13.9298 1.13338 13.9909 1.27981 13.9918 1.43274V3.64155C13.9931 4.03254 14.1491 4.40714 14.4257 4.68346C14.7023 4.95979 15.0771 5.11538 15.4681 5.11623C15.8574 5.11453 16.2303 4.95912 16.5055 4.68383L18.0625 3.12524C18.172 3.01617 18.3202 2.95493 18.4748 2.95493C18.6293 2.95493 18.7775 3.01617 18.887 3.12524L20.8667 5.10978C20.9757 5.21925 21.037 5.36748 21.037 5.52201C21.037 5.67655 20.9757 5.82478 20.8667 5.93425L19.3097 7.49122C19.1036 7.69756 18.9632 7.96038 18.9065 8.24647C18.8497 8.53256 18.879 8.82905 18.9908 9.09846C19.1025 9.36788 19.2916 9.59811 19.5342 9.76004C19.7768 9.92197 20.0619 10.0083 20.3536 10.0082H22.5592C22.7101 10.0067 22.8556 10.0646 22.9642 10.1695C23.019 10.2227 23.0626 10.2864 23.0923 10.3569C23.1219 10.4273 23.1371 10.5029 23.1368 10.5794V13.6336H23.0723C23.0424 13.6932 23.0032 13.7477 22.9561 13.795C22.8512 13.9018 22.7089 13.9637 22.5592 13.9676H20.3455C20.05 13.9643 19.7603 14.0498 19.5138 14.213C19.2674 14.3762 19.0757 14.6096 18.9634 14.883C18.8511 15.1564 18.8235 15.4572 18.8841 15.7465C18.9447 16.0357 19.0907 16.3002 19.3033 16.5055L20.8715 18.0593C20.9806 18.1688 21.0418 18.317 21.0418 18.4715C21.0418 18.6261 20.9806 18.7743 20.8715 18.8838L18.887 20.8618C18.7773 20.9705 18.6292 21.0315 18.4748 21.0315C18.3203 21.0315 18.1722 20.9705 18.0625 20.8618L16.5055 19.3016C16.3691 19.1642 16.2067 19.0552 16.0278 18.9809C15.8488 18.9067 15.657 18.8687 15.4633 18.8692C15.2697 18.8692 15.078 18.9074 14.8992 18.9815C14.7203 19.0557 14.5579 19.1643 14.4211 19.3013C14.2843 19.4382 14.1758 19.6008 14.1018 19.7797C14.0279 19.9586 13.99 20.1503 13.9902 20.3439V22.5431C13.9893 22.6963 13.928 22.8429 13.8195 22.9511C13.711 23.0593 13.5642 23.1202 13.411 23.1207H10.5826ZM8.5206 18.3787C9.0413 18.3809 9.54008 18.5885 9.90842 18.9566C10.2768 19.3246 10.4848 19.8232 10.4874 20.3439V22.5431C10.4874 22.5689 10.4975 22.5937 10.5156 22.6121C10.5338 22.6305 10.5584 22.641 10.5842 22.6415H13.4045C13.4174 22.6417 13.4303 22.6394 13.4423 22.6346C13.4543 22.6299 13.4653 22.6228 13.4746 22.6138C13.4839 22.6048 13.4913 22.5941 13.4964 22.5822C13.5016 22.5703 13.5043 22.5576 13.5045 22.5447V20.3439C13.5045 19.8247 13.7107 19.3268 14.0777 18.9595C14.4446 18.5922 14.9424 18.3856 15.4616 18.3852C15.7188 18.3845 15.9735 18.4347 16.2111 18.533C16.4488 18.6313 16.6645 18.7758 16.846 18.958L18.403 20.515C18.4217 20.5334 18.4469 20.5437 18.4731 20.5437C18.4994 20.5437 18.5246 20.5334 18.5433 20.515L20.5279 18.5353C20.5463 18.5165 20.5566 18.4913 20.5566 18.4651C20.5566 18.4388 20.5463 18.4136 20.5279 18.3949L18.9596 16.8411C18.6862 16.567 18.5001 16.218 18.4247 15.8382C18.3494 15.4585 18.3882 15.0649 18.5363 14.7071C18.6843 14.3494 18.935 14.0435 19.2567 13.828C19.5784 13.6126 19.9567 13.4972 20.3439 13.4965H22.5479C22.5733 13.496 22.5975 13.4857 22.6153 13.4675C22.6331 13.4494 22.6431 13.4251 22.6431 13.3997V13.156H22.6576V10.5874C22.6578 10.575 22.6553 10.5626 22.6503 10.5512C22.6453 10.5398 22.6379 10.5296 22.6286 10.5213C22.6098 10.5044 22.586 10.4942 22.5608 10.4922H20.3568C19.9693 10.4923 19.5905 10.3774 19.2683 10.162C18.9461 9.94672 18.695 9.64066 18.5468 9.28258C18.3986 8.92451 18.3599 8.53053 18.4357 8.15048C18.5115 7.77043 18.6983 7.4214 18.9725 7.14756L20.5295 5.59059C20.5479 5.57187 20.5582 5.54666 20.5582 5.5204C20.5582 5.49414 20.5479 5.46893 20.5295 5.45022L18.5498 3.46568C18.5311 3.44725 18.5059 3.43693 18.4796 3.43693C18.4533 3.43693 18.4281 3.44725 18.4094 3.46568L16.8524 5.02427C16.6708 5.20641 16.4551 5.35091 16.2175 5.44947C15.98 5.54804 15.7253 5.59874 15.4681 5.59865C14.9487 5.5978 14.4508 5.39121 14.0834 5.02411C13.716 4.65701 13.509 4.1593 13.5078 3.63993V1.44242C13.5078 1.41644 13.4977 1.39147 13.4796 1.3728C13.4615 1.35413 13.4369 1.34322 13.411 1.34239H10.6052C10.5792 1.3428 10.5544 1.3533 10.536 1.37167C10.5177 1.39004 10.5072 1.41483 10.5068 1.44081V3.63832C10.5068 4.1578 10.3004 4.65601 9.93306 5.02334C9.56572 5.39068 9.06752 5.59704 8.54803 5.59704C8.29088 5.59778 8.03614 5.54754 7.79853 5.44922C7.56092 5.35091 7.34515 5.20648 7.16369 5.02427L5.60672 3.46729C5.58801 3.44887 5.5628 3.43854 5.53654 3.43854C5.51027 3.43854 5.48506 3.44887 5.46635 3.46729L3.4802 5.44699C3.46215 5.4659 3.45208 5.49103 3.45208 5.51717C3.45208 5.54331 3.46215 5.56845 3.4802 5.58736L5.03717 7.14756C5.31051 7.42135 5.49657 7.77002 5.57184 8.1495C5.64711 8.52899 5.60822 8.92227 5.46008 9.27967C5.31195 9.63706 5.06121 9.94253 4.73954 10.1575C4.41788 10.3724 4.03972 10.4873 3.65284 10.4874H1.45371C1.42739 10.4885 1.40227 10.4988 1.38272 10.5164C1.36525 10.5353 1.35547 10.5601 1.35529 10.5858V13.3948C1.35508 13.4077 1.35741 13.4206 1.36216 13.4326C1.36691 13.4446 1.37399 13.4556 1.38298 13.4649C1.39197 13.4742 1.4027 13.4816 1.41456 13.4867C1.42642 13.4919 1.43918 13.4946 1.4521 13.4949H3.65929C3.91762 13.4946 4.17346 13.5453 4.41213 13.6442C4.6508 13.743 4.8676 13.888 5.05008 14.0709C5.23161 14.2523 5.37561 14.4677 5.47386 14.7048C5.57211 14.942 5.62267 15.1961 5.62267 15.4528C5.62267 15.7094 5.57211 15.9636 5.47386 16.2007C5.37561 16.4378 5.23161 16.6532 5.05008 16.8347L3.49311 18.39C3.47506 18.409 3.46499 18.4341 3.46499 18.4602C3.46499 18.4864 3.47506 18.5115 3.49311 18.5304L5.46151 20.5133C5.47053 20.5226 5.48132 20.53 5.49323 20.535C5.50515 20.54 5.51795 20.5426 5.53089 20.5426C5.54382 20.5426 5.55663 20.54 5.56854 20.535C5.58046 20.53 5.59125 20.5226 5.60027 20.5133L7.14756 18.9564C7.32695 18.7742 7.54065 18.6294 7.77631 18.5302C8.01197 18.4311 8.26494 18.3796 8.5206 18.3787Z"
            fill="#201600" />
        <path
            d="M12.0007 16.1571C10.8971 16.1571 9.8387 15.7187 9.05835 14.9384C8.278 14.158 7.8396 13.0996 7.8396 11.996C7.8396 10.8925 8.278 9.83406 9.05835 9.05371C9.8387 8.27336 10.8971 7.83496 12.0007 7.83496C12.5471 7.83496 13.0882 7.94259 13.5931 8.1517C14.0979 8.36082 14.5566 8.66732 14.943 9.05371C15.3294 9.4401 15.6359 9.89882 15.845 10.4037C16.0541 10.9085 16.1618 11.4496 16.1618 11.996C16.1618 12.5425 16.0541 13.0836 15.845 13.5884C15.6359 14.0933 15.3294 14.552 14.943 14.9384C14.5566 15.3248 14.0979 15.6313 13.5931 15.8404C13.0882 16.0495 12.5471 16.1571 12.0007 16.1571ZM12.0007 8.31899C11.0255 8.31899 10.0902 8.7064 9.40061 9.39597C8.71103 10.0856 8.32363 11.0208 8.32363 11.996C8.32363 12.9712 8.71103 13.9065 9.40061 14.5961C10.0902 15.2857 11.0255 15.6731 12.0007 15.6731C12.9759 15.6731 13.9112 15.2857 14.6007 14.5961C15.2903 13.9065 15.6777 12.9712 15.6777 11.996C15.6777 11.0208 15.2903 10.0856 14.6007 9.39597C13.9112 8.7064 12.9759 8.31899 12.0007 8.31899ZM12.0007 15.2988C11.3478 15.2988 10.7095 15.1052 10.1667 14.7424C9.62381 14.3797 9.2007 13.8641 8.95085 13.2609C8.70099 12.6577 8.63562 11.994 8.763 11.3536C8.89037 10.7133 9.20477 10.1251 9.66644 9.66341C10.1281 9.20174 10.7163 8.88734 11.3567 8.75997C11.997 8.6326 12.6608 8.69797 13.264 8.94782C13.8672 9.19768 14.3827 9.62079 14.7454 10.1637C15.1082 10.7065 15.3018 11.3448 15.3018 11.9976C15.3009 12.8735 14.9524 13.7131 14.3328 14.3321C13.7132 14.9511 12.8733 15.2988 11.9974 15.2988H12.0007ZM12.0007 9.18219C11.4434 9.18219 10.8987 9.34745 10.4354 9.65706C9.97212 9.96668 9.61105 10.4067 9.39788 10.9216C9.18471 11.4364 9.12902 12.0029 9.23785 12.5494C9.34668 13.0959 9.61514 13.5979 10.0093 13.9918C10.4034 14.3857 10.9055 14.6539 11.4521 14.7624C11.9986 14.8709 12.5651 14.8149 13.0798 14.6014C13.5946 14.388 14.0344 14.0266 14.3438 13.5632C14.6531 13.0997 14.8181 12.5549 14.8178 11.9976C14.8169 11.2504 14.5193 10.534 13.9905 10.0061C13.4616 9.4781 12.7447 9.18176 11.9974 9.18219H12.0007Z"
            fill="#201600" />
    </symbol>

    <symbol viewBox="0 0 21 24" fill="none" xmlns="http://www.w3.org/2000/svg" id="svg-cart">
        <path
            d="M15.7424 11.1139C15.563 11.1139 15.391 11.0425 15.2642 10.9154C15.1374 10.7883 15.0661 10.6159 15.0661 10.4361V5.82053C15.0776 5.23998 14.9733 4.66299 14.7596 4.1233C14.5458 3.58362 14.2268 3.09209 13.8212 2.67748C13.4156 2.26287 12.9316 1.9335 12.3974 1.70865C11.8633 1.4838 11.2898 1.36799 10.7104 1.36799C10.1311 1.36799 9.5576 1.4838 9.02347 1.70865C8.48933 1.9335 8.00531 2.26287 7.59971 2.67748C7.19412 3.09209 6.8751 3.58362 6.66133 4.1233C6.44757 4.66299 6.34334 5.23998 6.35475 5.82053V10.4361C6.35475 10.6159 6.2835 10.7883 6.15669 10.9154C6.02987 11.0425 5.85787 11.1139 5.67853 11.1139C5.49918 11.1139 5.32719 11.0425 5.20037 10.9154C5.07355 10.7883 5.00231 10.6159 5.00231 10.4361V5.82053C4.98927 5.06092 5.12727 4.30632 5.40828 3.60074C5.68928 2.89515 6.10766 2.25272 6.639 1.71092C7.17035 1.16911 7.80401 0.738785 8.50304 0.445036C9.20207 0.151287 9.95246 0 10.7104 0C11.4684 0 12.2188 0.151287 12.9178 0.445036C13.6169 0.738785 14.2505 1.16911 14.7819 1.71092C15.3132 2.25272 15.7316 2.89515 16.0126 3.60074C16.2936 4.30632 16.4316 5.06092 16.4186 5.82053V10.4361C16.4186 10.6159 16.3473 10.7883 16.2205 10.9154C16.0937 11.0425 15.9217 11.1139 15.7424 11.1139Z"
            fill="#201600" />
        <path
            d="M18.4016 24.0002H2.5933C1.90579 23.9993 1.24669 23.7252 0.760549 23.2379C0.274404 22.7507 0.000894617 22.0901 0 21.401V7.64905C0.000894617 6.95996 0.274404 6.29936 0.760549 5.8121C1.24669 5.32484 1.90579 5.0507 2.5933 5.04981H18.4016C19.09 5.04936 19.7504 5.3229 20.2377 5.8103C20.7249 6.29771 20.9991 6.95908 21 7.64905V21.401C20.9991 22.091 20.7249 22.7523 20.2377 23.2397C19.7504 23.7271 19.09 24.0007 18.4016 24.0002ZM2.5933 6.40534C2.26421 6.40534 1.94859 6.53638 1.71588 6.76962C1.48317 7.00286 1.35244 7.3192 1.35244 7.64905V21.401C1.35244 21.7308 1.48317 22.0472 1.71588 22.2804C1.94859 22.5137 2.26421 22.6447 2.5933 22.6447H18.4016C18.7307 22.6447 19.0463 22.5137 19.2791 22.2804C19.5118 22.0472 19.6425 21.7308 19.6425 21.401V7.64905C19.6425 7.3192 19.5118 7.00286 19.2791 6.76962C19.0463 6.53638 18.7307 6.40534 18.4016 6.40534H2.5933Z"
            fill="#201600" />
    </symbol>

    <symbol viewBox="0 0 16 16" fill="none" xmlns="http://www.w3.org/2000/svg" id="svg-search">
        <path
            d="M16 14.4164C16 14.471 16 14.5256 16 14.6075C15.945 14.8259 15.7801 15.0171 15.6151 15.1536C15.4227 15.3447 15.2302 15.5358 15.0378 15.727C14.9278 15.8635 14.7904 15.9727 14.6254 16C14.5704 16 14.5155 16 14.4605 16C14.2955 15.9454 14.1581 15.8362 14.0481 15.727C13.1684 14.8259 12.2612 13.9522 11.354 13.0512C11.3265 13.0239 11.299 13.0239 11.299 12.9966C10.1993 13.7338 8.98969 14.116 7.6976 14.2253C6.79038 14.2799 5.91065 14.198 5.05842 13.9249C3.32646 13.3788 2.00687 12.3413 1.04467 10.8396C0.439862 9.88396 0.109966 8.87372 0.0274914 7.75427C0.0274914 7.64505 0 7.56314 0 7.45392C0 7.20819 0 6.98976 0 6.74403C0 6.71672 -2.66275e-08 6.68942 0.0274914 6.66212C0.0274914 6.5256 0.0274914 6.33447 0.0549828 6.17065C0.164948 5.40614 0.357388 4.66894 0.714777 3.98635C1.51203 2.40273 2.72165 1.28328 4.34364 0.573379C5.03093 0.273038 5.7732 0.0819113 6.54296 0.0273038C6.65292 0.0273038 6.76289 0 6.87285 0C7.06529 0 7.28522 0 7.47766 0C7.50516 0 7.56014 0 7.58763 0.0273038C8.08247 0.0546075 8.54983 0.136519 9.01718 0.245734C10.7491 0.709898 12.1237 1.69283 13.1409 3.16724C13.8557 4.23208 14.268 5.40614 14.3505 6.66212C14.4055 7.31741 14.3505 7.94539 14.2131 8.60068C14.0481 9.4744 13.7182 10.3208 13.1684 11.058C13.1134 11.1399 13.0309 11.2218 12.9759 11.3311C13.0034 11.3584 13.0309 11.3857 13.0584 11.3857C13.9656 12.2867 14.8454 13.1604 15.7526 14.0614C15.8625 14.1433 15.945 14.2526 16 14.4164ZM7.17526 12.7782C10.3643 12.7782 12.866 10.2935 12.866 7.12628C12.866 3.95904 10.3643 1.4744 7.17526 1.4744C4.01375 1.4744 1.45704 4.01365 1.45704 7.12628C1.48454 10.2389 4.04124 12.7782 7.17526 12.7782Z"
            fill="#B3B3B3" />
    </symbol>
    <symbol  viewBox="0 0 11 10" fill="none" xmlns="http://www.w3.org/2000/svg" id="svg-star">
        <path d="M5.5 0L6.73483 3.80041H10.7308L7.49799 6.14919L8.73282 9.94959L5.5 7.60081L2.26718 9.94959L3.50201 6.14919L0.269189 3.80041H4.26517L5.5 0Z" fill="#FDAB1D"/>
    </symbol>

</svg>